HIERARCHY
ROOT Hips
{
	OFFSET 0.000000 0.000000 0.000000
	CHANNELS 6 Xposition Yposition Zposition Xrotation Yrotation Zrotation
	JOINT Thigh.L
	{
		OFFSET 0.054028 0.030990 -0.091957
		CHANNELS 3 Xrotation Yrotation Zrotation
		JOINT Shin.L
		{
			OFFSET 0.053656 0.015747 -0.410563
			CHANNELS 3 Xrotation Yrotation Zrotation
			JOINT Foot.L
			{
				OFFSET -0.041430 0.032991 -0.430492
				CHANNELS 3 Xrotation Yrotation Zrotation
				JOINT Toe.L
				{
					OFFSET 0.044727 -0.119338 -0.063674
					CHANNELS 3 Xrotation Yrotation Zrotation
					End Site
					{
						OFFSET 0.000000 0.050000 0.000000
					}
				}
			}
		}
	}
	JOINT Thigh.R
	{
		OFFSET -0.059329 0.028192 -0.102377
		CHANNELS 3 Xrotation Yrotation Zrotation
		JOINT Shin.R
		{
			OFFSET -0.043014 0.021242 -0.394236
			CHANNELS 3 Xrotation Yrotation Zrotation
			JOINT Foot.R
			{
				OFFSET 0.015534 0.021518 -0.439399
				CHANNELS 3 Xrotation Yrotation Zrotation
				JOINT Toe.R
				{
					OFFSET -0.037068 -0.120094 -0.063645
					CHANNELS 3 Xrotation Yrotation Zrotation
					End Site
					{
						OFFSET 0.000000 0.050000 0.000000
					}
				}
			}
		}
	}
	JOINT Spine
	{
		OFFSET -0.002047 0.019053 0.109038
		CHANNELS 3 Xrotation Yrotation Zrotation
		JOINT Spine.2
		{
			OFFSET 0.006686 0.002395 0.134710
			CHANNELS 3 Xrotation Yrotation Zrotation
			JOINT Chest
			{
				OFFSET -0.010335 -0.022956 0.049617
				CHANNELS 3 Xrotation Yrotation Zrotation
				JOINT Neck
				{
					OFFSET -0.009488 0.028460 0.163947
					CHANNELS 3 Xrotation Yrotation Zrotation
					JOINT Head
					{
						OFFSET 0.022357 -0.022185 0.167441
						CHANNELS 3 Xrotation Yrotation Zrotation
						End Site
						{
							OFFSET 0.000000 0.050000 0.000000
						}
					}
				}
				JOINT Clavicle.L
				{
					OFFSET 0.043549 0.007842 0.083841
					CHANNELS 3 Xrotation Yrotation Zrotation
					JOINT UpperArm.L
					{
						OFFSET 0.107604 0.014381 0.061442
						CHANNELS 3 Xrotation Yrotation Zrotation
						JOINT ForeArm.L
						{
							OFFSET 0.264153 0.035267 -0.075543
							CHANNELS 3 Xrotation Yrotation Zrotation
							JOINT Hand.L
							{
								OFFSET 0.262902 0.006037 0.021154
								CHANNELS 3 Xrotation Yrotation Zrotation
								JOINT Thumb1.L
								{
									OFFSET 0.154582 0.002746 0.009622
									CHANNELS 3 Xrotation Yrotation Zrotation
									JOINT Thumb2.L
									{
										OFFSET 0.029896 0.000686 0.002406
										CHANNELS 3 Xrotation Yrotation Zrotation
										End Site
										{
											OFFSET 0.024913 0.000572 0.002005
										}
									}
								}
								JOINT Index1.L
								{
									OFFSET 0.137582 0.002746 0.009622
									CHANNELS 3 Xrotation Yrotation Zrotation
									JOINT Index2.L
									{
										OFFSET 0.029896 0.000686 0.002406
										CHANNELS 3 Xrotation Yrotation Zrotation
										JOINT Index3.L
										{
											OFFSET 0.021923 0.000503 0.001764
											CHANNELS 3 Xrotation Yrotation Zrotation
											End Site
											{
												OFFSET 0.017937 0.000412 0.001443
											}
										}
									}
								}
								JOINT Middle1.L
								{
									OFFSET 0.119582 0.002746 0.009622
									CHANNELS 3 Xrotation Yrotation Zrotation
									JOINT Middle2.L
									{
										OFFSET 0.030892 0.000709 0.002486
										CHANNELS 3 Xrotation Yrotation Zrotation
										JOINT Middle3.L
										{
											OFFSET 0.021923 0.000503 0.001764
											CHANNELS 3 Xrotation Yrotation Zrotation
											End Site
											{
												OFFSET 0.017937 0.000412 0.001443
											}
										}
									}
								}
								JOINT Ring1.L
								{
									OFFSET 0.101582 0.002746 0.009622
									CHANNELS 3 Xrotation Yrotation Zrotation
									JOINT Ring2.L
									{
										OFFSET 0.028899 0.000664 0.002325
										CHANNELS 3 Xrotation Yrotation Zrotation
										JOINT Ring3.L
										{
											OFFSET 0.019930 0.000458 0.001604
											CHANNELS 3 Xrotation Yrotation Zrotation
											End Site
											{
												OFFSET 0.016941 0.000389 0.001363
											}
										}
									}
								}
								JOINT Pinky1.L
								{
									OFFSET 0.085582 0.002746 0.009622
									CHANNELS 3 Xrotation Yrotation Zrotation
									JOINT Pinky2.L
									{
										OFFSET 0.023916 0.000549 0.001924
										CHANNELS 3 Xrotation Yrotation Zrotation
										JOINT Pinky3.L
										{
											OFFSET 0.016941 0.000389 0.001363
											CHANNELS 3 Xrotation Yrotation Zrotation
											End Site
											{
												OFFSET 0.013951 0.000320 0.001123
											}
										}
									}
								}
							}
						}
					}
				}
				JOINT Clavicle.R
				{
					OFFSET -0.041656 0.013905 0.083294
					CHANNELS 3 Xrotation Yrotation Zrotation
					JOINT UpperArm.R
					{
						OFFSET -0.092948 0.009420 0.057122
						CHANNELS 3 Xrotation Yrotation Zrotation
						JOINT ForeArm.R
						{
							OFFSET -0.280262 0.022592 -0.042808
							CHANNELS 3 Xrotation Yrotation Zrotation
							JOINT Hand.R
							{
								OFFSET -0.259636 0.018584 -0.003553
								CHANNELS 3 Xrotation Yrotation Zrotation
								JOINT Thumb1.R
								{
									OFFSET -0.154683 0.008567 -0.001638
									CHANNELS 3 Xrotation Yrotation Zrotation
									JOINT Thumb2.R
									{
										OFFSET -0.029921 0.002142 -0.000409
										CHANNELS 3 Xrotation Yrotation Zrotation
										End Site
										{
											OFFSET -0.024934 0.001785 -0.000341
										}
									}
								}
								JOINT Index1.R
								{
									OFFSET -0.137683 0.008567 -0.001638
									CHANNELS 3 Xrotation Yrotation Zrotation
									JOINT Index2.R
									{
										OFFSET -0.029921 0.002142 -0.000409
										CHANNELS 3 Xrotation Yrotation Zrotation
										JOINT Index3.R
										{
											OFFSET -0.021942 0.001571 -0.000300
											CHANNELS 3 Xrotation Yrotation Zrotation
											End Site
											{
												OFFSET -0.017952 0.001285 -0.000246
											}
										}
									}
								}
								JOINT Middle1.R
								{
									OFFSET -0.119683 0.008567 -0.001638
									CHANNELS 3 Xrotation Yrotation Zrotation
									JOINT Middle2.R
									{
										OFFSET -0.030918 0.002213 -0.000423
										CHANNELS 3 Xrotation Yrotation Zrotation
										JOINT Middle3.R
										{
											OFFSET -0.021942 0.001571 -0.000300
											CHANNELS 3 Xrotation Yrotation Zrotation
											End Site
											{
												OFFSET -0.017952 0.001285 -0.000246
											}
										}
									}
								}
								JOINT Ring1.R
								{
									OFFSET -0.101683 0.008567 -0.001638
									CHANNELS 3 Xrotation Yrotation Zrotation
									JOINT Ring2.R
									{
										OFFSET -0.028923 0.002070 -0.000396
										CHANNELS 3 Xrotation Yrotation Zrotation
										JOINT Ring3.R
										{
											OFFSET -0.019947 0.001428 -0.000273
											CHANNELS 3 Xrotation Yrotation Zrotation
											End Site
											{
												OFFSET -0.016955 0.001214 -0.000232
											}
										}
									}
								}
								JOINT Pinky1.R
								{
									OFFSET -0.085683 0.008567 -0.001638
									CHANNELS 3 Xrotation Yrotation Zrotation
									JOINT Pinky2.R
									{
										OFFSET -0.023937 0.001713 -0.000328
										CHANNELS 3 Xrotation Yrotation Zrotation
										JOINT Pinky3.R
										{
											OFFSET -0.016955 0.001214 -0.000232
											CHANNELS 3 Xrotation Yrotation Zrotation
											End Site
											{
												OFFSET -0.013963 0.000999 -0.000191
											}
										}
									}
								}
							}
						}
					}
				}
			}
		}
	}
}
MOTION
Frames: 7
Frame Time: 0.04166667
0.061230 0.227901 1.132561 -3.162333 0.092839 3.462896 -32.954181 -11.832033 -4.482567 64.834062 11.381174 -0.866767 7.805486 11.732158 5.361544 -3.692501 -5.235554 -1.380230 -23.247635 6.202737 2.609044 35.916883 -1.467210 -2.420355 7.411964 -7.991124 -0.554268 -0.504216 -5.707828 -0.625042 18.877531 -2.629597 0.979840 7.527536 -3.809739 -5.670548 -4.901247 -3.586789 -0.491917 22.438780 10.667707 -0.574006 9.156512 -6.226175 10.544539 7.954269 9.027969 -3.958349 12.299313 35.280323 -21.881874 -2.601231 -4.926912 -99.915137 -32.225338 2.044437 -18.484688 0.000000 0.000000 0.000000 0.000000 0.000000 0.000000 0.000000 0.000000 0.000000 0.000000 0.000000 0.000000 0.000000 0.000000 0.000000 0.000000 0.000000 0.000000 0.000000 0.000000 0.000000 0.000000 0.000000 0.000000 0.000000 0.000000 0.000000 0.000000 0.000000 0.000000 0.000000 0.000000 0.000000 0.000000 0.000000 0.000000 0.000000 0.000000 0.000000 0.000000 0.000000 0.000000 9.831650 -3.839045 0.251034 14.111984 -45.749758 -0.557717 -2.537483 2.878049 85.123354 -30.761759 -1.606675 10.097075 0.000000 0.000000 0.000000 0.000000 0.000000 0.000000 0.000000 0.000000 0.000000 0.000000 0.000000 0.000000 0.000000 0.000000 0.000000 0.000000 0.000000 0.000000 0.000000 0.000000 0.000000 0.000000 0.000000 0.000000 0.000000 0.000000 0.000000 0.000000 0.000000 0.000000 0.000000 0.000000 0.000000 0.000000 0.000000 0.000000 0.000000 0.000000 0.000000 0.000000 0.000000 0.000000
0.071752 0.204653 1.108657 -5.312454 -0.241488 5.639961 -41.573545 -12.886033 -5.946533 84.416117 14.397421 -3.063054 3.817300 9.171694 4.722457 -5.064744 -4.741002 -0.790668 -19.957711 4.825318 2.771915 35.821827 -1.191987 -0.407676 3.303959 -5.163943 -1.007262 -0.727519 -5.900676 -0.441672 20.569598 -3.523149 1.541632 6.263988 -6.063540 -8.223442 -5.098693 -4.403871 -1.904947 21.052983 10.122786 -0.482106 9.688571 -4.413868 10.138996 7.419023 7.259403 -5.298182 11.241805 33.954669 -25.277287 -4.508877 -6.160071 -105.198042 -35.108098 3.115128 -18.427184 0.000000 0.000000 0.000000 0.000000 0.000000 0.000000 0.000000 0.000000 0.000000 0.000000 0.000000 0.000000 0.000000 0.000000 0.000000 0.000000 0.000000 0.000000 0.000000 0.000000 0.000000 0.000000 0.000000 0.000000 0.000000 0.000000 0.000000 0.000000 0.000000 0.000000 0.000000 0.000000 0.000000 0.000000 0.000000 0.000000 0.000000 0.000000 0.000000 0.000000 0.000000 0.000000 8.096321 -6.170085 -1.464307 13.294498 -44.742648 -2.789141 -7.897973 3.947155 81.859939 -30.539604 -1.133884 9.023827 0.000000 0.000000 0.000000 0.000000 0.000000 0.000000 0.000000 0.000000 0.000000 0.000000 0.000000 0.000000 0.000000 0.000000 0.000000 0.000000 0.000000 0.000000 0.000000 0.000000 0.000000 0.000000 0.000000 0.000000 0.000000 0.000000 0.000000 0.000000 0.000000 0.000000 0.000000 0.000000 0.000000 0.000000 0.000000 0.000000 0.000000 0.000000 0.000000 0.000000 0.000000 0.000000
0.069964 0.198038 1.077452 -7.522379 0.812176 7.520264 -48.866485 -14.953834 -7.077442 101.897305 15.903542 -6.463656 -0.113159 5.940847 3.968113 -6.049296 -4.376404 0.827999 -18.670491 3.033641 2.578588 40.479315 -2.258232 0.984407 -7.573965 1.684286 -2.771356 -0.405124 -5.731972 0.024386 22.535410 -5.091769 1.814953 5.879365 -8.377165 -10.068037 -5.379853 -4.556048 -2.905521 17.941192 8.474744 1.132620 9.930996 -1.502811 9.165549 6.570786 5.749147 -5.958403 8.664364 32.613274 -27.467973 -7.368141 -8.145254 -108.377490 -36.797642 1.420050 -17.785346 0.000000 0.000000 0.000000 0.000000 0.000000 0.000000 0.000000 0.000000 0.000000 0.000000 0.000000 0.000000 0.000000 0.000000 0.000000 0.000000 0.000000 0.000000 0.000000 0.000000 0.000000 0.000000 0.000000 0.000000 0.000000 0.000000 0.000000 0.000000 0.000000 0.000000 0.000000 0.000000 0.000000 0.000000 0.000000 0.000000 0.000000 0.000000 0.000000 0.000000 0.000000 0.000000 6.056894 -8.542859 -2.245406 11.571665 -42.422140 -3.449555 -13.064165 4.062754 78.320586 -32.047820 -0.105093 8.085136 0.000000 0.000000 0.000000 0.000000 0.000000 0.000000 0.000000 0.000000 0.000000 0.000000 0.000000 0.000000 0.000000 0.000000 0.000000 0.000000 0.000000 0.000000 0.000000 0.000000 0.000000 0.000000 0.000000 0.000000 0.000000 0.000000 0.000000 0.000000 0.000000 0.000000 0.000000 0.000000 0.000000 0.000000 0.000000 0.000000 0.000000 0.000000 0.000000 0.000000 0.000000 0.000000
0.064770 0.188954 1.053975 -9.407526 1.927892 8.504736 -52.883702 -16.525088 -7.569295 110.704974 15.960323 -7.786796 -2.285702 3.782879 4.165962 -6.640290 -3.903681 1.876937 -19.097383 2.130340 2.258370 44.822410 -3.220274 1.330831 -15.413492 5.789488 -3.629003 -0.228637 -4.963939 0.502745 24.278686 -5.732577 1.754368 6.397765 -10.070209 -10.537025 -5.980979 -4.730118 -3.394073 16.003761 6.746405 2.643285 9.676695 0.165246 7.960994 6.487451 5.286046 -6.146856 7.145662 31.778239 -28.438854 -8.255275 -9.060282 -108.406538 -36.637263 -1.045961 -17.199448 0.000000 0.000000 0.000000 0.000000 0.000000 0.000000 0.000000 0.000000 0.000000 0.000000 0.000000 0.000000 0.000000 0.000000 0.000000 0.000000 0.000000 0.000000 0.000000 0.000000 0.000000 0.000000 0.000000 0.000000 0.000000 0.000000 0.000000 0.000000 0.000000 0.000000 0.000000 0.000000 0.000000 0.000000 0.000000 0.000000 0.000000 0.000000 0.000000 0.000000 0.000000 0.000000 5.428770 -9.878849 -1.577964 9.592521 -40.511136 -2.553279 -16.213626 2.808077 75.664183 -32.832917 2.607803 8.264188 0.000000 0.000000 0.000000 0.000000 0.000000 0.000000 0.000000 0.000000 0.000000 0.000000 0.000000 0.000000 0.000000 0.000000 0.000000 0.000000 0.000000 0.000000 0.000000 0.000000 0.000000 0.000000 0.000000 0.000000 0.000000 0.000000 0.000000 0.000000 0.000000 0.000000 0.000000 0.000000 0.000000 0.000000 0.000000 0.000000 0.000000 0.000000 0.000000 0.000000 0.000000 0.000000
0.061413 0.185721 1.046357 -10.181248 2.185942 8.721160 -53.323235 -16.856260 -7.398768 110.517966 15.704673 -7.056863 -2.768399 3.408192 5.027196 -6.198894 -3.508865 1.579419 -18.753538 2.241024 1.967861 45.615879 -3.516470 1.364229 -17.666825 6.789018 -3.584822 -0.210316 -4.809351 0.436798 24.697871 -5.670638 1.850808 7.178110 -10.509676 -10.195465 -6.461504 -4.834046 -3.320785 15.873379 5.945960 2.873035 9.951653 0.597418 7.217572 6.784919 5.710218 -5.836047 8.007749 31.746980 -29.011926 -6.629032 -9.356764 -106.028640 -34.646764 -2.402765 -17.051606 0.000000 0.000000 0.000000 0.000000 0.000000 0.000000 0.000000 0.000000 0.000000 0.000000 0.000000 0.000000 0.000000 0.000000 0.000000 0.000000 0.000000 0.000000 0.000000 0.000000 0.000000 0.000000 0.000000 0.000000 0.000000 0.000000 0.000000 0.000000 0.000000 0.000000 0.000000 0.000000 0.000000 0.000000 0.000000 0.000000 0.000000 0.000000 0.000000 0.000000 0.000000 0.000000 5.409808 -10.237715 -0.690442 9.331857 -39.719856 -0.651989 -16.582504 1.921841 74.695836 -32.016647 4.921702 8.639599 0.000000 0.000000 0.000000 0.000000 0.000000 0.000000 0.000000 0.000000 0.000000 0.000000 0.000000 0.000000 0.000000 0.000000 0.000000 0.000000 0.000000 0.000000 0.000000 0.000000 0.000000 0.000000 0.000000 0.000000 0.000000 0.000000 0.000000 0.000000 0.000000 0.000000 0.000000 0.000000 0.000000 0.000000 0.000000 0.000000 0.000000 0.000000 0.000000 0.000000 0.000000 0.000000
0.059515 0.192982 1.056523 -9.449878 1.578575 8.137903 -50.733123 -16.346237 -6.678639 102.981116 15.999688 -5.064578 -1.694995 4.482847 6.098090 -5.650232 -3.608019 0.498476 -17.890625 3.182395 1.795846 42.966673 -3.092519 1.019400 -14.854327 5.469546 -3.503944 -0.523726 -4.921821 -0.074220 23.720247 -4.886625 2.096859 8.123286 -9.795563 -9.392772 -6.514812 -4.594331 -2.790269 16.818042 5.701993 2.718338 9.891352 0.169726 6.796889 7.711563 6.930881 -5.265759 10.328664 32.318903 -27.854977 -2.687979 -9.364636 -101.197696 -32.265502 -2.325274 -16.558425 0.000000 0.000000 0.000000 0.000000 0.000000 0.000000 0.000000 0.000000 0.000000 0.000000 0.000000 0.000000 0.000000 0.000000 0.000000 0.000000 0.000000 0.000000 0.000000 0.000000 0.000000 0.000000 0.000000 0.000000 0.000000 0.000000 0.000000 0.000000 0.000000 0.000000 0.000000 0.000000 0.000000 0.000000 0.000000 0.000000 0.000000 0.000000 0.000000 0.000000 0.000000 0.000000 5.878452 -9.873866 0.143649 10.365494 -40.488556 1.736992 -14.401332 1.788372 74.960203 -30.351597 6.264718 9.108304 0.000000 0.000000 0.000000 0.000000 0.000000 0.000000 0.000000 0.000000 0.000000 0.000000 0.000000 0.000000 0.000000 0.000000 0.000000 0.000000 0.000000 0.000000 0.000000 0.000000 0.000000 0.000000 0.000000 0.000000 0.000000 0.000000 0.000000 0.000000 0.000000 0.000000 0.000000 0.000000 0.000000 0.000000 0.000000 0.000000 0.000000 0.000000 0.000000 0.000000 0.000000 0.000000
0.058312 0.209159 1.079924 -7.457159 0.322590 6.358656 -45.346105 -15.308742 -5.487634 88.511521 16.082081 -2.057468 1.455710 6.825590 6.673201 -4.776795 -4.274992 -0.844134 -17.225183 4.853397 1.554660 38.495728 -2.479434 0.813150 -6.895477 1.715741 -2.986748 -1.042396 -5.480759 -0.653974 21.818175 -3.670511 2.409871 8.671814 -7.571603 -7.872087 -5.926244 -3.916330 -1.887827 18.800034 5.996220 2.012803 10.430245 -1.162604 7.247026 8.981267 9.074896 -4.453045 12.274018 33.584176 -23.586856 1.394549 -8.526831 -94.280291 -29.423744 -1.552819 -16.212872 0.000000 0.000000 0.000000 0.000000 0.000000 0.000000 0.000000 0.000000 0.000000 0.000000 0.000000 0.000000 0.000000 0.000000 0.000000 0.000000 0.000000 0.000000 0.000000 0.000000 0.000000 0.000000 0.000000 0.000000 0.000000 0.000000 0.000000 0.000000 0.000000 0.000000 0.000000 0.000000 0.000000 0.000000 0.000000 0.000000 0.000000 0.000000 0.000000 0.000000 0.000000 0.000000 6.807417 -8.543967 1.050013 12.171590 -42.324950 3.711931 -9.523975 2.464520 79.467951 -28.167182 5.834719 9.903253 0.000000 0.000000 0.000000 0.000000 0.000000 0.000000 0.000000 0.000000 0.000000 0.000000 0.000000 0.000000 0.000000 0.000000 0.000000 0.000000 0.000000 0.000000 0.000000 0.000000 0.000000 0.000000 0.000000 0.000000 0.000000 0.000000 0.000000 0.000000 0.000000 0.000000 0.000000 0.000000 0.000000 0.000000 0.000000 0.000000 0.000000 0.000000 0.000000 0.000000 0.000000 0.000000
